#!OML:ASF F:\VICON\USERDATA\INSTALL\rory3\rory3.ASF
:FULLY-SPECIFIED
:DEGREES
506
root 4.93027 16.3911 2.26484 5.60725 -12.1832 -6.95551
lowerback 20.612 -0.844986 4.43042
upperback 4.7233 -0.0853853 1.74668
thorax -6.38443 -0.116337 -0.617731
lowerneck -14.9202 -0.557008 -1.71925
upperneck 36.9016 0.348997 -2.13554
head 15.4789 -0.455239 -0.559651
rclavicle 2.78299e-015 1.53064e-014
rhumerus -38.7706 2.81814 -7.47392
rradius 27.4094
rwrist 12.805
rhand -21.7843 -50.2783
rfingers 7.12502
rthumb 4.61701 -80.208
lclavicle 2.78299e-015 1.53064e-014
lhumerus -35.9479 -2.24041 1.70187
lradius 23.1155
lwrist 10.0496
lhand -22.2721 -26.0212
lfingers 7.12502
lthumb 4.14597 3.91819
rfemur -105.584 0.106745 27.2185
rtibia 103.038
rfoot 50.1568 5.87204
rtoes -3.14051
lfemur -31.1433 2.40792 -23.3878
ltibia 52.4326
lfoot -23.6821 9.42872
ltoes 16.0968
507
root 4.92994 16.3913 2.261 5.60374 -12.264 -7.03927
lowerback 20.7759 -0.833784 4.46715
upperback 4.69907 -0.051195 1.76318
thorax -6.49539 -0.102647 -0.628171
lowerneck -15.0168 -0.565454 -1.65409
upperneck 36.9285 0.340346 -2.19326
head 15.5153 -0.458614 -0.59835
rclavicle 6.06293e-015 2.38542e-015
rhumerus -38.7268 2.74602 -7.4456
rradius 27.4678
rwrist 12.9305
rhand -21.7488 -50.236
rfingers 7.12502
rthumb 4.65137 -80.1649
lclavicle 6.06293e-015 2.38542e-015
lhumerus -36.01 -2.17932 1.63208
lradius 23.1538
lwrist 9.99354
lhand -22.396 -25.8857
lfingers 7.12502
lthumb 4.02638 4.05602
rfemur -105.462 0.21835 27.3016
rtibia 102.913
rfoot 50.0464 5.73005
rtoes -3.08884
lfemur -31.1341 2.43319 -23.2931
ltibia 52.4676
lfoot -23.6798 9.46897
ltoes 16.023
508
root 4.92564 16.3856 2.24344 5.78395 -12.2834 -7.2111
lowerback 20.9613 -0.832123 4.50769
upperback 4.5951 -0.0187748 1.83417
thorax -6.70471 -0.0919919 -0.580761
lowerneck -15.1803 -0.564879 -1.69221
upperneck 37.076 0.34961 -2.16482
head 15.6279 -0.458948 -0.581337
rclavicle 8.94531e-016 -4.17448e-015
rhumerus -38.5573 2.62813 -7.37518
rradius 27.2939
rwrist 13.1715
rhand -22.0957 -49.9291
rfingers 7.12502
rthumb 4.31637 -79.8651
lclavicle 8.94531e-016 -4.17448e-015
lhumerus -35.9755 -2.04938 1.57314
lradius 23.051
lwrist 10.0066
lhand -22.5666 -25.9494
lfingers 7.12502
lthumb 3.86168 3.99533
rfemur -105.512 0.415149 27.4495
rtibia 102.674
rfoot 50.1433 5.46065
rtoes -2.98423
lfemur -31.4408 2.45316 -23.0694
ltibia 52.5423
lfoot -23.5805 9.49226
ltoes 15.8827
509
root 4.92579 16.3872 2.25134 5.85788 -12.2552 -7.11139
lowerback 20.8411 -0.852191 4.43737
upperback 4.55442 -0.0661514 1.81786
thorax -6.68795 -0.113595 -0.546659
lowerneck -15.3237 -0.57784 -1.84189
upperneck 37.2846 0.316477 -1.9845
head 15.7663 -0.472443 -0.487446
rclavicle 9.93923e-015 3.04141e-014
rhumerus -38.4154 2.63804 -7.32747
rradius 27.206
rwrist 13.158
rhand -22.3831 -49.9893
rfingers 7.12502
rthumb 4.0388 -79.9308
lclavicle 9.93923e-015 3.04141e-014
lhumerus -35.9233 -1.86753 1.49383
lradius 22.8933
lwrist 9.88549
lhand -22.7137 -26.1227
lfingers 7.12502
lthumb 3.71954 3.82461
rfemur -105.588 0.330634 27.3427
rtibia 102.626
rfoot 50.2579 5.08683
rtoes -2.50544
lfemur -31.4988 2.31763 -23.1803
ltibia 52.5545
lfoot -23.6356 9.58433
ltoes 15.7984
